<?xml version="1.0" standalone="no"?>
<!DOCTYPE svg PUBLIC "-//W3C//DTD SVG 20010904//EN"
 "http://www.w3.org/TR/2001/REC-SVG-20010904/DTD/svg10.dtd">
<svg version="1.0" xmlns="http://www.w3.org/2000/svg"
 width="1200.000000pt" height="1200.000000pt" viewBox="0 0 1200.000000 1200.000000"
 preserveAspectRatio="xMidYMid meet">
<metadata>
Created by potrace 1.14, written by Peter Selinger 2001-2017
</metadata>
<g transform="translate(0.000000,1200.000000) scale(0.100000,-0.100000)"
fill="#000000" stroke="none">
<path d="M5890 10809 c-76 -20 -165 -61 -239 -112 -66 -44 -4198 -4179 -4255
-4257 -72 -98 -121 -212 -141 -325 -7 -39 -8 -186 -2 -215 2 -8 7 -31 11 -50
17 -77 76 -210 120 -269 21 -27 896 -908 2073 -2084 2250 -2251 2185 -2188
2298 -2244 211 -107 457 -86 641 53 288 218 352 558 162 850 -36 55 -473 498
-1942 1967 -1043 1042 -1896 1897 -1896 1900 0 2 28 26 63 52 68 53 382 365
2387 2370 908 908 1368 1375 1396 1417 166 249 115 596 -117 801 -166 147
-358 197 -559 146z"/>
<path d="M7248 9465 c-2 -2 -26 -5 -53 -9 -288 -34 -527 -308 -534 -611 -3
-136 46 -272 148 -405 27 -36 596 -612 1265 -1281 l1215 -1217 -72 -57 c-68
-54 -991 -970 -1950 -1935 -455 -458 -480 -488 -534 -620 -115 -286 -13 -617
240 -774 216 -133 461 -123 695 31 68 45 2911 2883 2961 2956 43 63 95 177
112 247 8 33 14 107 14 185 0 150 -20 231 -82 337 -45 77 -100 134 -1523 1558
-1117 1116 -1430 1426 -1485 1468 -51 40 -162 92 -228 107 -56 13 -182 26
-189 20z"/>
<path d="M6009 6766 c-2 -2 -26 -6 -54 -10 -227 -27 -471 -200 -578 -411 -69
-138 -91 -228 -90 -380 1 -493 434 -856 930 -781 151 23 327 119 440 239 56
58 136 176 148 217 4 14 11 30 15 35 7 9 25 68 37 120 38 175 18 358 -59 520
-99 210 -313 382 -536 431 -64 14 -244 28 -253 20z"/>
</g>
</svg>
